<svg width="1398" height="439" viewBox="0 0 1398 439" fill="none" xmlns="http://www.w3.org/2000/svg">
<path d="M385.064 378.157H389.736V422.957H385.064V378.157ZM357.032 422.957H352.296V378.157H357.032V422.957ZM385.512 402.285H356.52V398.125H385.512V402.285ZM447.303 423.341C443.932 423.341 440.796 422.786 437.895 421.677C435.036 420.525 432.54 418.925 430.407 416.877C428.316 414.786 426.673 412.376 425.479 409.645C424.327 406.872 423.751 403.842 423.751 400.557C423.751 397.272 424.327 394.264 425.479 391.533C426.673 388.76 428.316 386.349 430.407 384.301C432.54 382.21 435.036 380.61 437.895 379.501C440.753 378.349 443.889 377.773 447.303 377.773C450.673 377.773 453.788 378.349 456.647 379.501C459.505 380.61 461.98 382.189 464.071 384.237C466.204 386.285 467.847 388.696 468.999 391.469C470.193 394.242 470.791 397.272 470.791 400.557C470.791 403.842 470.193 406.872 468.999 409.645C467.847 412.418 466.204 414.829 464.071 416.877C461.98 418.925 459.505 420.525 456.647 421.677C453.788 422.786 450.673 423.341 447.303 423.341ZM447.303 419.117C449.991 419.117 452.465 418.669 454.727 417.773C457.031 416.834 459.015 415.533 460.679 413.869C462.385 412.162 463.708 410.2 464.647 407.981C465.585 405.72 466.055 403.245 466.055 400.557C466.055 397.869 465.585 395.416 464.647 393.197C463.708 390.936 462.385 388.973 460.679 387.309C459.015 385.602 457.031 384.301 454.727 383.405C452.465 382.466 449.991 381.997 447.303 381.997C444.615 381.997 442.119 382.466 439.815 383.405C437.511 384.301 435.505 385.602 433.799 387.309C432.135 388.973 430.812 390.936 429.831 393.197C428.892 395.416 428.423 397.869 428.423 400.557C428.423 403.202 428.892 405.656 429.831 407.917C430.812 410.178 432.135 412.162 433.799 413.869C435.505 415.533 437.511 416.834 439.815 417.773C442.119 418.669 444.615 419.117 447.303 419.117ZM504.766 422.957V378.157H508.67L529.15 413.101H527.102L547.39 378.157H551.294V422.957H546.75V385.261H547.838L529.15 417.261H526.91L508.094 385.261H509.31V422.957H504.766ZM593.475 398.189H617.155V402.221H593.475V398.189ZM593.987 418.861H620.931V422.957H589.251V378.157H619.971V382.253H593.987V418.861ZM695.533 422.957V378.157H713.773C718.552 378.157 722.733 379.117 726.317 381.037C729.944 382.914 732.76 385.538 734.765 388.909C736.771 392.28 737.773 396.162 737.773 400.557C737.773 404.952 736.771 408.834 734.765 412.205C732.76 415.576 729.944 418.221 726.317 420.141C722.733 422.018 718.552 422.957 713.773 422.957H695.533ZM700.269 418.861H713.517C717.485 418.861 720.92 418.093 723.821 416.557C726.765 414.978 729.048 412.824 730.669 410.093C732.291 407.32 733.101 404.141 733.101 400.557C733.101 396.93 732.291 393.752 730.669 391.021C729.048 388.29 726.765 386.157 723.821 384.621C720.92 383.042 717.485 382.253 713.517 382.253H700.269V418.861ZM775.993 398.189H799.673V402.221H775.993V398.189ZM776.505 418.861H803.449V422.957H771.769V378.157H802.489V382.253H776.505V418.861ZM857.272 423.341C853.901 423.341 850.787 422.786 847.928 421.677C845.069 420.525 842.595 418.925 840.504 416.877C838.413 414.829 836.771 412.418 835.576 409.645C834.424 406.872 833.848 403.842 833.848 400.557C833.848 397.272 834.424 394.242 835.576 391.469C836.771 388.696 838.413 386.285 840.504 384.237C842.637 382.189 845.133 380.61 847.992 379.501C850.851 378.349 853.965 377.773 857.336 377.773C860.579 377.773 863.629 378.328 866.488 379.437C869.347 380.504 871.757 382.125 873.72 384.301L870.712 387.309C868.877 385.432 866.851 384.088 864.632 383.277C862.413 382.424 860.024 381.997 857.464 381.997C854.776 381.997 852.28 382.466 849.976 383.405C847.672 384.301 845.667 385.602 843.96 387.309C842.253 388.973 840.909 390.936 839.928 393.197C838.989 395.416 838.52 397.869 838.52 400.557C838.52 403.245 838.989 405.72 839.928 407.981C840.909 410.2 842.253 412.162 843.96 413.869C845.667 415.533 847.672 416.834 849.976 417.773C852.28 418.669 854.776 419.117 857.464 419.117C860.024 419.117 862.413 418.69 864.632 417.837C866.851 416.984 868.877 415.618 870.712 413.741L873.72 416.749C871.757 418.925 869.347 420.568 866.488 421.677C863.629 422.786 860.557 423.341 857.272 423.341ZM925.823 423.341C922.452 423.341 919.316 422.786 916.415 421.677C913.556 420.525 911.06 418.925 908.927 416.877C906.836 414.786 905.193 412.376 903.999 409.645C902.847 406.872 902.271 403.842 902.271 400.557C902.271 397.272 902.847 394.264 903.999 391.533C905.193 388.76 906.836 386.349 908.927 384.301C911.06 382.21 913.556 380.61 916.415 379.501C919.273 378.349 922.409 377.773 925.823 377.773C929.193 377.773 932.308 378.349 935.167 379.501C938.025 380.61 940.5 382.189 942.591 384.237C944.724 386.285 946.367 388.696 947.519 391.469C948.713 394.242 949.311 397.272 949.311 400.557C949.311 403.842 948.713 406.872 947.519 409.645C946.367 412.418 944.724 414.829 942.591 416.877C940.5 418.925 938.025 420.525 935.167 421.677C932.308 422.786 929.193 423.341 925.823 423.341ZM925.823 419.117C928.511 419.117 930.985 418.669 933.247 417.773C935.551 416.834 937.535 415.533 939.199 413.869C940.905 412.162 942.228 410.2 943.167 407.981C944.105 405.72 944.575 403.245 944.575 400.557C944.575 397.869 944.105 395.416 943.167 393.197C942.228 390.936 940.905 388.973 939.199 387.309C937.535 385.602 935.551 384.301 933.247 383.405C930.985 382.466 928.511 381.997 925.823 381.997C923.135 381.997 920.639 382.466 918.335 383.405C916.031 384.301 914.025 385.602 912.319 387.309C910.655 388.973 909.332 390.936 908.351 393.197C907.412 395.416 906.943 397.869 906.943 400.557C906.943 403.202 907.412 405.656 908.351 407.917C909.332 410.178 910.655 412.162 912.319 413.869C914.025 415.533 916.031 416.834 918.335 417.773C920.639 418.669 923.135 419.117 925.823 419.117ZM983.286 422.957V378.157H1000.05C1003.85 378.157 1007.12 378.776 1009.85 380.013C1012.58 381.208 1014.67 382.957 1016.12 385.261C1017.61 387.522 1018.36 390.274 1018.36 393.517C1018.36 396.674 1017.61 399.405 1016.12 401.709C1014.67 403.97 1012.58 405.72 1009.85 406.957C1007.12 408.152 1003.85 408.749 1000.05 408.749H985.91L988.022 406.573V422.957H983.286ZM1013.88 422.957L1002.36 406.701H1007.48L1019.06 422.957H1013.88ZM988.022 406.957L985.91 404.717H999.926C1004.41 404.717 1007.8 403.736 1010.1 401.773C1012.45 399.81 1013.62 397.058 1013.62 393.517C1013.62 389.933 1012.45 387.16 1010.1 385.197C1007.8 383.234 1004.41 382.253 999.926 382.253H985.91L988.022 380.013V406.957Z" fill="#201E1E"/>
<path d="M88.0562 274H8.33959V107.699H91.2449C106.779 107.699 119.534 111.051 129.509 117.755C140.955 125.441 146.679 136.642 146.679 151.359C146.679 167.221 137.685 178.994 119.698 186.68C141.282 192.893 152.075 206.547 152.075 227.642C152.075 243.994 145.125 256.176 131.226 264.189C119.943 270.73 105.553 274 88.0562 274ZM90.7543 119.227H20.849V181.774H90.5091C102.61 181.774 112.584 179.403 120.433 174.661C129.591 169.101 134.169 160.925 134.169 150.133C134.169 139.34 129.427 131.246 119.943 125.85C112.257 121.435 102.528 119.227 90.7543 119.227ZM90.0185 193.302H20.849V262.472H90.9996C104.572 262.472 115.691 259.855 124.358 254.623C134.66 248.572 139.811 239.661 139.811 227.887C139.811 215.296 134.333 206.057 123.377 200.17C114.874 195.592 103.754 193.302 90.0185 193.302ZM189.505 218.566C191.14 249.635 207.574 265.17 238.807 265.17C262.518 265.17 278.134 255.44 285.656 235.981H298.41C293.668 251.352 285.574 262.145 274.128 268.359C264.153 273.918 252.216 276.698 238.316 276.698C218.203 276.698 202.832 270.893 192.203 259.283C182.229 248.491 177.241 233.528 177.241 214.396C177.241 195.592 182.883 180.384 194.166 168.774C205.612 157.164 220.738 151.359 239.543 151.359C258.348 151.359 273.392 156.673 284.675 167.302C295.958 177.768 301.599 191.912 301.599 209.736V218.321L189.505 218.566ZM239.543 162.887C225.643 162.887 214.197 166.812 205.203 174.661C196.373 182.51 191.222 193.302 189.751 207.038H287.863C287.046 193.302 282.222 182.51 273.392 174.661C264.725 166.812 253.442 162.887 239.543 162.887ZM331.129 274V107.699H343.638V274H331.129ZM381.594 274V107.699H394.103V274H381.594ZM436.474 218.566C438.109 249.635 454.543 265.17 485.775 265.17C509.486 265.17 525.102 255.44 532.624 235.981H545.379C540.637 251.352 532.542 262.145 521.096 268.359C511.121 273.918 499.184 276.698 485.285 276.698C465.172 276.698 449.801 270.893 439.172 259.283C429.197 248.491 424.209 233.528 424.209 214.396C424.209 195.592 429.851 180.384 441.134 168.774C452.58 157.164 467.706 151.359 486.511 151.359C505.316 151.359 520.36 156.673 531.643 167.302C542.926 177.768 548.567 191.912 548.567 209.736V218.321L436.474 218.566ZM486.511 162.887C472.612 162.887 461.165 166.812 452.172 174.661C443.341 182.51 438.191 193.302 436.719 207.038H534.832C534.014 193.302 529.19 182.51 520.36 174.661C511.693 166.812 500.41 162.887 486.511 162.887Z" fill="#201E1E"/>
<path d="M894.698 275.717C861.667 275.717 843.679 261.409 840.736 232.793H853.491C855.289 253.723 868.698 264.189 893.717 264.189C908.924 264.189 919.635 261.245 925.849 255.359C932.063 249.308 935.169 239.006 935.169 224.453V107.699H947.679V225.925C947.679 259.12 930.018 275.717 894.698 275.717ZM1081.68 274.245V257.566C1072.04 270.321 1057.4 276.698 1037.78 276.698C1022.41 276.698 1010.22 273.019 1001.23 265.66C991.747 257.648 987.004 246.447 987.004 232.057V154.302H999.514V231.811C999.514 254.05 1012.27 265.17 1037.78 265.17C1052.49 265.17 1063.61 260.918 1071.14 252.415C1078.17 244.403 1081.68 233.283 1081.68 219.057V154.302H1094.19V274.245H1081.68ZM1227.72 274V195.755C1227.72 185.126 1224.29 176.868 1217.42 170.982C1210.72 165.585 1201.56 162.887 1189.95 162.887C1176.21 162.887 1165.34 166.975 1157.33 175.151C1149.48 183.164 1145.55 193.711 1145.55 206.793V274H1133.04V154.057H1145.55V170.491C1155.04 157.736 1169.75 151.359 1189.7 151.359C1204.26 151.359 1216.11 154.793 1225.27 161.661C1235.24 169.183 1240.23 179.812 1240.23 193.548V274H1227.72ZM1283.5 218.566C1285.13 249.635 1301.57 265.17 1332.8 265.17C1356.51 265.17 1372.13 255.44 1379.65 235.981H1392.4C1387.66 251.352 1379.57 262.145 1368.12 268.359C1358.14 273.918 1346.21 276.698 1332.31 276.698C1312.19 276.698 1296.82 270.893 1286.19 259.283C1276.22 248.491 1271.23 233.528 1271.23 214.396C1271.23 195.592 1276.87 180.384 1288.16 168.774C1299.6 157.164 1314.73 151.359 1333.53 151.359C1352.34 151.359 1367.38 156.673 1378.67 167.302C1389.95 177.768 1395.59 191.912 1395.59 209.736V218.321L1283.5 218.566ZM1333.53 162.887C1319.63 162.887 1308.19 166.812 1299.19 174.661C1290.36 182.51 1285.21 193.302 1283.74 207.038H1381.85C1381.04 193.302 1376.21 182.51 1367.38 174.661C1358.72 166.812 1347.43 162.887 1333.53 162.887Z" fill="#201E1E"/>
<path d="M778.294 242.977C760.537 267.002 737.661 279.014 709.668 279.014C691.075 279.014 674.78 274.731 660.783 266.166C644.071 256.138 635.714 242.35 635.714 224.802C635.714 208.925 642.922 194.406 657.336 181.245C666.737 172.889 680.943 163.905 699.953 154.296C675.929 141.552 663.917 124.631 663.917 103.531C663.917 90.1609 669.557 79.6111 680.838 71.8815C690.657 64.9875 702.565 61.5406 716.562 61.5406C731.394 61.5406 743.615 64.8831 753.225 71.5681C764.088 79.0888 769.52 89.952 769.52 104.158C769.52 124.213 749.569 144.79 709.668 165.89C689.821 176.336 676.556 184.483 669.871 190.332C657.754 201.196 651.696 212.686 651.696 224.802C651.696 236.919 657.754 246.738 669.871 254.258C680.943 260.943 693.582 264.286 707.787 264.286C734.946 264.286 754.896 253.005 767.64 230.443C774.743 217.699 778.294 202.971 778.294 186.259H794.275V279.954H778.294V242.977ZM741.944 82.8492C735.259 78.4621 727.007 76.2686 717.188 76.2686C707.161 76.2686 698.596 78.5666 691.493 83.1625C683.763 88.1763 679.898 95.0703 679.898 103.844C679.898 121.811 691.806 135.912 715.622 146.148C740.899 132.151 753.538 118.05 753.538 103.844C753.538 95.0703 749.674 88.0719 741.944 82.8492Z" fill="#201E1E"/>
</svg>
